Land_normalized_Precision Landing05_filtered_grf
version=1
nRows=25
nColumns=37
inDegrees=yes
endheader
time		1_ground_force_vx		1_ground_force_vy		1_ground_force_vz		1_ground_force_px		1_ground_force_py		1_ground_force_pz		1_ground_torque_x		1_ground_torque_y		1_ground_torque_z		2_ground_force_vx		2_ground_force_vy		2_ground_force_vz		2_ground_force_px		2_ground_force_py		2_ground_force_pz		2_ground_torque_x		2_ground_torque_y		2_ground_torque_z		3_ground_force_vx		3_ground_force_vy		3_ground_force_vz		3_ground_force_px		3_ground_force_py		3_ground_force_pz		3_ground_torque_x		3_ground_torque_y		3_ground_torque_z		4_ground_force_vx		4_ground_force_vy		4_ground_force_vz		4_ground_force_px		4_ground_force_py		4_ground_force_pz		4_ground_torque_x		4_ground_torque_y		4_ground_torque_z		
1.632833		3.301245		806.127908		139.943052		0.086035		0.000000		0.265323		0.071550		17.471068		3.032961		14.688640		736.923596		38.180928		-0.145538		0.000000		0.281122		0.149188		7.484635		0.387788		2.020224		-1.213826		-0.491584		0.352581		1.256376		1.892824		-0.019056		-0.005561		-0.003411		-5.771198		0.576446		-1.421488		-0.288669		1.264931		1.901148		-0.025002		0.002498		-0.006158		
1.636141		0.724014		790.258089		136.994610		0.086419		0.000000		0.264691		0.015529		16.946466		2.937743		11.703084		741.046795		40.501421		-0.145219		0.000000		0.280432		0.119254		7.551370		0.412717		1.978302		-1.243522		-0.570784		0.352577		1.256366		1.892813		-0.019418		-0.006387		-0.005840		-5.723818		0.702068		-1.459066		-0.288666		1.264913		1.901130		-0.030294		0.003716		-0.007722		
1.639449		-2.066517		774.936598		133.509675		0.086932		0.000000		0.264202		-0.043746		16.405191		2.826363		8.711699		742.932499		43.667319		-0.144932		0.000000		0.279634		0.090890		7.751275		0.455599		1.942411		-1.339283		-0.698764		0.352575		1.256359		1.892799		-0.019412		-0.004619		-0.007270		-5.686321		0.759064		-1.610480		-0.288663		1.264896		1.901109		-0.033494		0.004471		-0.009487		
1.642758		-5.030757		760.305525		129.529717		0.087614		0.000000		0.263938		-0.104921		15.857770		2.701618		5.817286		742.771930		47.273401		-0.144694		0.000000		0.278781		0.062874		8.028757		0.510996		1.914373		-1.472681		-0.815178		0.352576		1.256352		1.892782		-0.019298		-0.000491		-0.007675		-5.647591		0.756186		-1.810213		-0.288665		1.264885		1.901094		-0.034599		0.004633		-0.011090		
1.646066		-8.148539		746.195855		125.192236		0.088428		0.000000		0.263872		-0.167417		15.331354		2.572203		3.144721		740.787303		50.908779		-0.144516		0.000000		0.277926		0.035360		8.330076		0.572468		1.892765		-1.584922		-0.878273		0.352577		1.256346		1.892764		-0.019223		0.004660		-0.007282		-5.601520		0.714821		-1.990155		-0.288673		1.264883		1.901089		-0.033804		0.004314		-0.012010		
1.649374		-11.426095		732.342640		120.773322		0.089271		0.000000		0.263895		-0.231646		14.847334		2.448531		0.787330		737.179453		54.275464		-0.144410		0.000000		0.277110		0.009199		8.616890		0.634432		1.869628		-1.619637		-0.875394		0.352574		1.256337		1.892748		-0.019201		0.009361		-0.006341		-5.546936		0.650897		-2.109059		-0.288693		1.264891		1.901095		-0.031591		0.003707		-0.012011		
1.652682		-14.891196		718.651530		116.654992		0.090054		0.000000		0.263898		-0.298018		14.382693		2.334671		-1.191178		732.205813		57.227206		-0.144380		0.000000		0.276353		-0.014438		8.872658		0.693469		1.829866		-1.558129		-0.820552		0.352563		1.256327		1.892738		-0.019174		0.012673		-0.005027		-5.484650		0.569669		-2.160526		-0.288721		1.264905		1.901109		-0.028725		0.002984		-0.011316		
1.655990		-18.566495		705.333410		113.215056		0.090755		0.000000		0.263850		-0.365844		13.898284		2.230853		-2.682444		726.208608		59.726504		-0.144437		0.000000		0.275667		-0.033627		9.103522		0.748713		1.758801		-1.425880		-0.742207		0.352540		1.256317		1.892737		-0.019076		0.014110		-0.003534		-5.416783		0.474379		-2.160998		-0.288755		1.264920		1.901126		-0.026018		0.002279		-0.010380		
1.659298		-22.433997		692.818409		110.742265		0.091389		0.000000		0.263773		-0.433794		13.396932		2.141408		-3.489377		719.590679		61.775725		-0.144591		0.000000		0.275057		-0.045255		9.332371		0.801175		1.652121		-1.269074		-0.672514		0.352509		1.256307		1.892745		-0.018860		0.013259		-0.002181		-5.348566		0.378277		-2.130255		-0.288787		1.264932		1.901140		-0.024000		0.001698		-0.009558		
1.662606		-26.410699		681.499451		109.325553		0.091952		0.000000		0.263679		-0.500353		12.911221		2.071206		-3.417763		712.759602		63.404611		-0.144843		0.000000		0.274517		-0.045971		9.587349		0.852861		1.525462		-1.125369		-0.638141		0.352470		1.256297		1.892761		-0.018512		0.009882		-0.001365		-5.292371		0.303757		-2.081106		-0.288815		1.264936		1.901148		-0.022569		0.001295		-0.008875		
1.665914		-30.355833		671.581359		108.826000		0.092412		0.000000		0.263548		-0.563022		12.456231		2.018461		-2.388728		706.056426		64.665997		-0.145173		0.000000		0.274028		-0.033451		9.888280		0.905647		1.413217		-1.011591		-0.648961		0.352425		1.256286		1.892780		-0.018041		0.004350		-0.001368		-5.269213		0.271239		-2.020103		-0.288833		1.264931		1.901150		-0.021105		0.001086		-0.008091		
1.669222		-34.077013		663.048384		108.889151		0.092745		0.000000		0.263374		-0.619137		12.046930		1.978405		-0.528357		699.726969		65.639097		-0.145546		0.000000		0.273564		-0.007722		10.236736		0.960280		1.355456		-0.935365		-0.690103		0.352380		1.256273		1.892800		-0.017467		-0.001963		-0.002120		-5.301021		0.289301		-1.953168		-0.288844		1.264919		1.901148		-0.019075		0.001041		-0.007028		
1.672530		-37.361708		655.748467		109.072276		0.092951		0.000000		0.263196		-0.668154		11.727020		1.950584		1.870777		693.892645		66.394350		-0.145915		0.000000		0.273096		0.028618		10.614143		1.015603		1.379336		-0.909673		-0.729330		0.352337		1.256257		1.892817		-0.016831		-0.007114		-0.003099		-5.396464		0.352541		-1.888128		-0.288851		1.264904		1.901144		-0.016624		0.001086		-0.005816		
1.675838		-40.011517		649.514269		109.001524		0.093054		0.000000		0.263068		-0.710190		11.528661		1.934741		4.467294		688.591726		66.958581		-0.146238		0.000000		0.272605		0.071299		10.988812		1.068554		1.487872		-0.949671		-0.736258		0.352297		1.256237		1.892829		-0.016211		-0.009603		-0.003491		-5.541780		0.445863		-1.836659		-0.288855		1.264890		1.901143		-0.014616		0.001176		-0.004845		
1.679146		-41.883665		644.173688		108.499536		0.093076		0.000000		0.262989		-0.743347		11.432727		1.925638		6.948341		683.833185		67.330733		-0.146487		0.000000		0.272084		0.115090		11.326253		1.115193		1.657432		-1.048646		-0.702004		0.352263		1.256219		1.892839		-0.015693		-0.009375		-0.002734		-5.700041		0.547971		-1.816291		-0.288861		1.264879		1.901147		-0.014165		0.001362		-0.004514		
1.682455		-42.870741		639.595141		107.632598		0.092992		0.000000		0.262870		-0.765294		11.417542		1.921371		9.057256		679.625489		67.524720		-0.146654		0.000000		0.271537		0.154583		11.599275		1.152455		1.852066		-1.166039		-0.645245		0.352232		1.256205		1.892849		-0.015355		-0.007792		-0.001068		-5.823178		0.635728		-1.848202		-0.288870		1.264876		1.901158		-0.015916		0.001738		-0.005051		
1.685763		-42.895697		635.722289		106.657511		0.092732		0.000000		0.262599		-0.776004		11.500527		1.929486		10.591967		675.937093		67.607945		-0.146734		0.000000		0.270954		0.184828		11.794804		1.179729		2.035548		-1.245019		-0.602929		0.352207		1.256200		1.892862		-0.015246		-0.006659		0.000459		-5.867881		0.687926		-1.944637		-0.288883		1.264882		1.901177		-0.019463		0.002282		-0.006450		
1.689071		-41.954446		632.578594		105.882107		0.092244		0.000000		0.262134		-0.776006		11.700450		1.958441		11.456213		672.667581		67.691353		-0.146723		0.000000		0.270322		0.202985		11.918536		1.199377		2.181125		-1.250546		-0.608181		0.352187		1.256204		1.892879		-0.015331		-0.006970		0.000762		-5.813376		0.693305		-2.092676		-0.288899		1.264893		1.901201		-0.023366		0.002787		-0.008412		
1.692379		-40.110224		630.253338		105.529585		0.091539		0.000000		0.261543		-0.764303		12.009603		2.010888		11.694191		669.664048		67.875576		-0.146630		0.000000		0.269628		0.209386		11.990379		1.215317		2.277424		-1.192158		-0.674899		0.352170		1.256215		1.892900		-0.015423		-0.008467		-0.000430		-5.666383		0.653597		-2.251973		-0.288920		1.264907		1.901227		-0.025975		0.002996		-0.010324		
1.695687		-37.471163		628.815158		105.670203		0.090669		0.000000		0.260914		-0.740077		12.419669		2.087084		11.493573		666.713831		68.199817		-0.146475		0.000000		0.268872		0.207503		12.036744		1.231269		2.327213		-1.118741		-0.797292		0.352158		1.256228		1.892922		-0.015215		-0.010136		-0.002371		-5.460431		0.582246		-2.369957		-0.288944		1.264916		1.901254		-0.026433		0.002819		-0.011473		
1.698995		-34.121998		628.258091		106.221473		0.089679		0.000000		0.260284		-0.702598		12.936318		2.187182		11.093911		663.565516		68.635072		-0.146287		0.000000		0.268058		0.201950		12.079345		1.249412		2.334203		-1.085338		-0.959225		0.352150		1.256238		1.892941		-0.014487		-0.011145		-0.003961		-5.247576		0.498117		-2.409485		-0.288970		1.264922		1.901279		-0.025083		0.002381		-0.011517		
1.702303		-30.116978		628.507833		106.979844		0.088609		0.000000		0.259625		-0.649337		13.551437		2.306626		10.690751		659.961262		69.125678		-0.146093		0.000000		0.267198		0.196510		12.130965		1.270623		2.296277		-1.119472		-1.138789		0.352147		1.256240		1.892955		-0.013253		-0.011381		-0.004482		-5.087026		0.420132		-2.363424		-0.288995		1.264922		1.901300		-0.022993		0.001899		-0.010683		
1.705611		-25.558892		629.447018		107.663036		0.087507		0.000000		0.258907		-0.578059		14.236551		2.435076		10.392875		655.669032		69.640524		-0.145906		0.000000		0.266299		0.193364		12.199049		1.295698		2.215545		-1.206039		-1.306801		0.352148		1.256229		1.892962		-0.011779		-0.011268		-0.003904		-5.022689		0.365765		-2.256249		-0.289014		1.264918		1.901315		-0.000014		0.139474		-0.034487		
1.708919		-20.622449		630.988746		107.981434		0.086428		0.000000		0.258165		-0.489267		14.970760		2.561953		10.249439		650.472206		70.202870		-0.145726		0.000000		0.265351		0.193715		12.293916		1.326835		2.103559		-1.306350		-1.429557		0.352153		1.256210		1.892962		-0.010447		-0.011098		-0.002746		-5.065575		0.350674		-2.128890		-0.289027		1.264913		1.901329		-0.020605		0.001426		-0.008659		
1.712227		-15.539062		633.055960		107.698500		0.085440		0.000000		0.257500		-0.386211		15.735421		2.676978		10.298034		644.224576		70.881865		-0.145548		0.000000		0.264337		0.198733		12.432289		1.367887		1.975876		-1.385205		-1.480129		0.352158		1.256185		1.892959		-0.009646		-0.010613		-0.001848		-5.186968		0.381415		-2.025646		-0.289030		1.264909		1.901339		-0.021361		0.001571		-0.008342		
